<svg width="804" height="786" viewBox="0 0 804 786" fill="none" xmlns="http://www.w3.org/2000/svg">
<path d="M712.859 734.891C700.896 729.828 687.932 706.719 704.021 687.87C716.344 673.438 746.51 677.917 752.323 693.505C763.198 722.667 767.724 750.292 767.724 750.292C767.724 750.292 737.885 745.479 712.859 734.891ZM581.599 614.052C561.599 609.604 496.432 588.115 467.146 578.344C518.568 560.214 560.203 521.354 582.021 471.797C592.823 499.057 614.651 554.161 622.167 573.484C632.307 599.563 607.677 619.844 581.599 614.052ZM256.755 392.505C256.755 312.49 321.62 247.625 401.635 247.625C481.651 247.625 546.516 312.49 546.516 392.505C546.516 472.521 481.651 537.385 401.635 537.385C321.62 537.385 256.755 472.521 256.755 392.505ZM221.672 614.052C195.594 619.844 170.964 599.563 181.104 573.484C188.62 554.161 210.443 499.057 221.255 471.797C243.068 521.354 284.703 560.214 336.13 578.344C306.839 588.115 241.672 609.604 221.672 614.052ZM181.104 211.526C170.964 185.448 195.594 165.167 221.672 170.958C241.672 175.406 306.844 196.896 336.13 206.667C284.703 224.797 243.068 263.651 221.25 313.214C210.443 285.958 188.62 230.849 181.104 211.526ZM581.599 170.958C607.677 165.167 632.307 185.448 622.167 211.526C614.651 230.849 592.828 285.958 582.021 313.214C560.203 263.651 518.563 224.797 467.141 206.667C496.427 196.896 561.599 175.406 581.599 170.958ZM90.4115 734.891C65.3854 745.479 35.5469 750.292 35.5469 750.292C35.5469 750.292 40.0729 722.667 50.9479 693.505C56.7604 677.917 86.9271 673.438 99.25 687.87C115.339 706.719 102.375 729.828 90.4115 734.891ZM99.25 97.1354C86.9271 111.573 56.7604 107.094 50.9479 91.5052C40.0729 62.3438 35.5469 34.7188 35.5469 34.7188C35.5469 34.7188 65.3854 39.5312 90.4115 50.1198C102.375 55.1823 115.339 78.2917 99.25 97.1354ZM712.859 50.1198C737.885 39.5312 767.724 34.7188 767.724 34.7188C767.724 34.7188 763.198 62.3438 752.323 91.5052C746.51 107.094 716.344 111.573 704.021 97.1354C687.932 78.2917 700.896 55.1823 712.859 50.1198ZM664.182 398.177C631.745 398.177 610.203 406.349 597.521 413.542C598.255 406.63 598.641 399.615 598.641 392.505C598.641 385.396 598.255 378.38 597.521 371.469C610.203 378.661 631.745 386.833 664.182 386.833C722.135 386.833 797.474 325.984 800.375 231.807C803.271 137.635 803.271 0 803.271 0H580.151C448.313 0 407.745 69.5417 407.745 114.453C407.745 148.688 417 181.214 428.464 197.323C419.688 196.13 410.74 195.5 401.635 195.5C392.536 195.5 383.583 196.13 374.807 197.323C386.271 181.214 395.526 148.688 395.526 114.453C395.526 69.5417 354.964 0 223.12 0H0C0 0 1.27157e-06 137.635 2.89583 231.807C5.79688 325.984 81.1354 386.833 139.089 386.833C171.531 386.833 193.068 378.661 205.75 371.469C205.016 378.38 204.63 385.396 204.63 392.505C204.63 399.615 205.016 406.63 205.75 413.542C193.068 406.349 171.531 398.177 139.089 398.177C81.1354 398.177 5.79688 459.026 2.89583 553.198C1.27157e-06 647.375 0 785.01 0 785.01H223.12C354.964 785.01 395.526 715.469 395.526 670.552C395.526 636.323 386.271 603.797 374.813 587.688C383.583 588.88 392.536 589.51 401.635 589.51C410.74 589.51 419.688 588.88 428.464 587.688C417 603.797 407.745 636.323 407.745 670.552C407.745 715.469 448.313 785.01 580.151 785.01H803.271C803.271 785.01 803.271 647.375 800.375 553.198C797.474 459.026 722.135 398.177 664.182 398.177Z" fill="#2563EB"/>
</svg>
